<svg width="13" height="13" viewBox="0 0 13 13" fill="none" xmlns="http://www.w3.org/2000/svg">
<path d="M6.11877 0.560492C6.2369 0.188623 6.7631 0.188625 6.88123 0.560494L8.09526 4.38238C8.14802 4.54846 8.30223 4.66128 8.47649 4.66128H12.4241C12.8094 4.66128 12.9719 5.15251 12.6627 5.38233L9.45356 7.76724C9.31652 7.86907 9.25923 8.04666 9.31092 8.20938L10.533 12.0566C10.6506 12.4267 10.2249 12.7304 9.91318 12.4988L6.73859 10.1395C6.59695 10.0343 6.40305 10.0343 6.26141 10.1395L3.08682 12.4988C2.77512 12.7304 2.34943 12.4267 2.467 12.0566L3.68908 8.20938C3.74077 8.04666 3.68348 7.86907 3.54644 7.76723L0.33732 5.38233C0.0280718 5.15251 0.190619 4.66128 0.575913 4.66128H4.52351C4.69777 4.66128 4.85198 4.54846 4.90474 4.38238L6.11877 0.560492Z" fill="white"/>
</svg>
